<svg width="170" height="54" viewBox="0 0 170 54" fill="none" xmlns="http://www.w3.org/2000/svg"><rect x=".5" y=".5" width="169" height="53" rx="7.5" fill="#000" stroke="#A6A6A6"/><path d="M40 33.023a15.508 15.508 0 01-2.054 4.257c-1.21 1.85-2.485 3.651-4.505 3.685-2.021.033-2.618-1.178-4.87-1.178-2.253 0-2.965 1.144-4.854 1.211-1.888.068-3.395-1.951-4.654-3.785-2.518-3.769-4.406-10.516-1.839-15.109a7.207 7.207 0 016.063-3.819c1.921 0 3.71 1.38 4.903 1.38 1.192 0 3.379-1.632 5.648-1.38 2.17.067 4.174 1.178 5.433 2.978-1.971 1.211-3.18 3.382-3.197 5.72A6.485 6.485 0 0040 33.023zm-7.719-17.211A6.81 6.81 0 0033.788 11a6.716 6.716 0 00-4.356 2.288 6.456 6.456 0 00-1.54 4.627 5.566 5.566 0 004.389-2.103zM60.898 36.114h-6.55l-1.573 4.709H50l6.21-17.412h2.894l6.21 17.412h-2.775l-1.642-4.709zm-5.872-2.174h5.195l-2.505-7.636h-.067l-2.623 7.636zm23.707.53c0 3.939-2.098 6.472-5.246 6.472a4.247 4.247 0 01-3.943-2.225V45h-2.64V28.17h2.488v2.123a4.467 4.467 0 014.01-2.242c3.233-.069 5.314 2.465 5.314 6.454l.017-.034zm-2.657 0c0-2.567-1.387-4.21-3.316-4.21-1.93 0-3.3 1.728-3.3 4.21 0 2.483 1.387 4.281 3.3 4.281 1.912 0 3.316-1.678 3.316-4.229v-.051zm16.448 0c0 3.939-2.081 6.472-5.229 6.472a4.247 4.247 0 01-3.943-2.225V45h-2.64V28.17H83.2v2.123a4.44 4.44 0 013.994-2.242c3.232-.069 5.313 2.465 5.313 6.454l.017-.034zm-2.64 0c0-2.567-1.303-4.21-3.317-4.21-2.013 0-3.282 1.728-3.282 4.21 0 2.483 1.32 4.247 3.282 4.247 1.963 0 3.317-1.661 3.317-4.212v-.034zm11.778 1.439c.186 1.73 1.844 2.808 4.162 2.808 2.319 0 3.723-1.13 3.723-2.688 0-1.558-.948-2.157-3.181-2.722l-2.234-.548c-3.164-.77-4.62-2.26-4.62-4.691 0-3.014 2.573-5.068 6.245-5.068s6.142 2.055 6.227 5.068h-2.64c-.152-1.747-1.574-2.808-3.638-2.808-2.065 0-3.486 1.044-3.486 2.602 0 1.216.897 1.952 3.114 2.517l1.895.462c3.536.84 5.009 2.277 5.009 4.828 0 3.27-2.573 5.308-6.651 5.308-3.807 0-6.396-1.986-6.548-5.136l2.623.068zm16.126-10.786v2.996h2.386v2.055h-2.386v7.002c0 1.078.474 1.592 1.523 1.592.287.017.558.017.846 0v2.055a6.253 6.253 0 01-1.388.12c-2.555 0-3.536-.976-3.536-3.442v-7.327h-1.879v-2.055h1.828v-2.996h2.606zm3.756 9.382c0-3.989 2.336-6.506 5.957-6.506 3.638 0 5.939 2.517 5.939 6.506 0 3.99-2.284 6.472-5.939 6.472-3.655 0-5.957-2.5-5.957-6.472zm9.29 0c0-2.74-1.252-4.366-3.333-4.366-2.082 0-3.266 1.558-3.266 4.366s1.235 4.366 3.334 4.366c2.081 0 3.265-1.66 3.265-4.366zm4.755-6.352h2.505v2.14a2.978 2.978 0 013.029-2.277c.304 0 .592.035.88.103v2.431a3.225 3.225 0 00-1.134-.257 2.61 2.61 0 00-2.792 2.431c-.017.189 0 .36.017.548v7.533h-2.505V28.153zm18.276 8.989c-.339 2.294-2.572 3.886-5.398 3.886-3.655 0-5.923-2.483-5.923-6.454 0-3.972 2.268-6.558 5.804-6.558 3.537 0 5.652 2.414 5.652 6.267v.89h-8.867v.171c-.152 1.815 1.185 3.424 2.978 3.578.136.017.271.017.406.017 1.253.12 2.42-.599 2.894-1.78l2.454-.017zm-8.698-3.801h6.278c.084-1.678-1.185-3.116-2.843-3.202h-.237c-1.743 0-3.164 1.404-3.198 3.168v.034zM51.237 10.67a4.165 4.165 0 012.316-.67c1.52 0 2.586.807 2.586 2.18 0 1.1-.778 1.94-1.809 2.18v.035c1.234.137 2.147.961 2.147 2.249 0 1.854-1.572 2.592-3.178 2.592-.795 0-1.64-.171-2.299-.583l.304-.91c.474.274 1.251.55 1.978.55 1.302 0 2.028-.722 2.028-1.7 0-1.34-1.267-1.717-2.383-1.717h-.524V14h.524c1.166 0 2.062-.72 2.062-1.648 0-.91-.625-1.408-1.572-1.408-.659 0-1.352.275-1.825.584l-.355-.859zM61.447 19.082l-.085-.807h-.033a2.363 2.363 0 01-1.927.961c-1.285 0-1.927-.91-1.927-1.837 0-1.545 1.352-2.403 3.803-2.386v-.138c0-.532-.135-1.493-1.437-1.493-.592 0-1.2.189-1.64.48l-.253-.772c.524-.343 1.285-.567 2.08-.567 1.926 0 2.4 1.34 2.4 2.627v2.404c0 .549.033 1.098.1 1.545h-1.081v-.017zm-.17-3.28c-1.25-.034-2.67.207-2.67 1.443 0 .755.49 1.115 1.082 1.115.828 0 1.352-.532 1.521-1.081a1.48 1.48 0 00.068-.378v-1.098zM68.09 12.66v.945H65.35v5.476H64.22v-6.42h3.87zM69.191 14.755c0-.825-.034-1.494-.05-2.095h1.03l.051 1.099h.034c.474-.79 1.217-1.253 2.248-1.253 1.522 0 2.671 1.304 2.671 3.261 0 2.301-1.386 3.451-2.873 3.451-.829 0-1.572-.377-1.944-1.013h-.034v3.485H69.19v-6.935zm1.133 1.716c0 .172.034.327.05.481.203.807.897 1.373 1.725 1.373 1.217 0 1.927-1.012 1.927-2.472 0-1.287-.66-2.386-1.876-2.386-.778 0-1.522.567-1.742 1.442-.033.137-.084.326-.084.48v1.082zM76.897 12.66l1.386 3.795c.136.429.305.927.406 1.305h.034c.118-.378.254-.876.406-1.34l1.25-3.76h1.218l-1.724 4.567c-.829 2.198-1.387 3.33-2.164 4.018-.558.497-1.116.703-1.403.755l-.288-.979a2.85 2.85 0 00.998-.566c.32-.258.71-.704.963-1.305.05-.12.085-.206.085-.275 0-.068-.034-.154-.085-.309l-2.332-5.905h1.25zM83.22 15.356h.54c.964 0 1.623-.446 1.623-1.047 0-.567-.507-.927-1.233-.927-.508 0-1.082.171-1.522.446l-.287-.72a3.991 3.991 0 012.096-.585c.963 0 2.147.43 2.147 1.683 0 .79-.71 1.305-1.42 1.46v.034c.946.085 1.724.669 1.724 1.596 0 1.39-1.403 1.906-2.722 1.906a4.357 4.357 0 01-2.045-.515l.304-.79c.457.258 1.065.43 1.674.43.946 0 1.555-.464 1.555-1.1 0-.858-.896-1.098-1.843-1.098h-.574v-.773h-.017zM89.37 12.66v2.713c0 1.013-.016 1.665-.067 2.575l.034.017c.372-.79.609-1.236 1.014-1.974l1.978-3.313h1.352v6.42h-1.098v-2.712c0-1.047.034-1.596.084-2.627h-.034c-.405.824-.676 1.34-1.048 1.992-.608.996-1.284 2.232-1.977 3.348h-1.319V12.66h1.082zM99.785 12.66v.928h-1.977v5.493h-1.133v-5.493h-1.978v-.927h5.088zM101.256 16.077c.033 1.58 1.014 2.232 2.163 2.232.829 0 1.319-.137 1.758-.326l.203.841c-.405.189-1.099.395-2.096.395-1.944 0-3.11-1.305-3.11-3.228 0-1.922 1.115-3.468 2.958-3.468 2.062 0 2.603 1.837 2.603 3.022 0 .24-.034.43-.034.55h-4.445v-.018zm3.364-.824c.016-.738-.305-1.888-1.589-1.888-1.167 0-1.674 1.081-1.758 1.888h3.347zM109.896 12.747c.44-.086 1.268-.137 2.012-.137 1.065 0 2.806.171 2.806 1.596 0 .79-.608 1.288-1.318 1.442v.035c.929.137 1.605.67 1.605 1.596 0 1.683-2.096 1.889-3.33 1.889-.71 0-1.436-.052-1.775-.086v-6.335zm1.099 5.562c.321.035.558.052.93.052.778 0 1.927-.189 1.927-1.116s-.913-1.133-2.012-1.133h-.828v2.197h-.017zm0-2.953h.862c.846 0 1.725-.257 1.725-1.012 0-.636-.541-.945-1.691-.945-.372 0-.608.035-.896.052v1.905z" fill="#fff"/></svg>