<svg width="194" height="54" viewBox="0 0 194 54" fill="none" xmlns="http://www.w3.org/2000/svg"><rect x=".5" y=".5" width="193" height="53" rx="7.5" fill="#000" stroke="#A6A6A6"/><path d="M16.62 9.56a2.81 2.81 0 00-.611 1.964v30.935a2.81 2.81 0 00.65 1.965l.095.115 17.147-17.316v-.424L16.716 9.463l-.096.096z" fill="url(#googlePlay_svg__paint0_linear)"/><path d="M39.599 32.982l-5.697-5.778v-.424L39.6 21l.134.077 6.805 3.891c1.95 1.098 1.95 2.928 0 4.045l-6.786 3.891-.153.077z" fill="url(#googlePlay_svg__paint1_linear)"/><path d="M39.77 32.904l-5.868-5.913-17.3 17.432c.802.732 2.007.77 2.867.096L39.77 32.904z" fill="url(#googlePlay_svg__paint2_linear)"/><path d="M39.77 21.098L19.489 9.482a2.236 2.236 0 00-2.867.078l17.3 17.432 5.85-5.895z" fill="url(#googlePlay_svg__paint3_linear)"/><path d="M96.864 29.614c-3.273 0-5.914 2.71-5.914 6.042 0 3.333 2.66 6.022 5.933 6.022 3.273 0 5.914-2.709 5.914-6.042.039-3.274-2.526-5.964-5.742-6.022h-.19zm0 9.667c-1.971.136-3.694-1.384-3.828-3.391-.134-2.008 1.36-3.762 3.33-3.898 1.972-.137 3.694 1.384 3.828 3.391v.253c.096 1.93-1.359 3.548-3.253 3.645h-.077zm-12.938-9.667c-3.273 0-5.914 2.71-5.914 6.042 0 3.333 2.66 6.022 5.933 6.022 3.273 0 5.914-2.709 5.914-6.042.038-3.274-2.526-5.964-5.742-6.022h-.191zm0 9.667c-1.971.136-3.694-1.384-3.828-3.391-.134-2.008 1.359-3.762 3.33-3.898 1.972-.137 3.694 1.384 3.828 3.391v.253c.096 1.93-1.359 3.548-3.254 3.645h-.076zm-15.388-7.816v2.554h6.01a5.39 5.39 0 01-1.397 3.216c-1.225 1.267-2.91 1.949-4.632 1.87-3.675 0-6.66-3.04-6.66-6.782s2.985-6.782 6.66-6.782a6.345 6.345 0 014.555 1.832l1.76-1.794a8.69 8.69 0 00-6.296-2.572c-5.072-.195-9.34 3.82-9.531 8.985-.192 5.165 3.751 9.511 8.823 9.706h.708c2.412.097 4.727-.858 6.412-2.612a8.574 8.574 0 002.162-5.983c0-.526-.038-1.053-.134-1.579l-8.44-.059zm62.949 1.988c-.747-2.221-2.756-3.742-5.053-3.839-3.062 0-5.569 2.514-5.569 5.652 0 .117 0 .234.019.37-.038 3.314 2.584 6.003 5.818 6.042a5.837 5.837 0 004.957-2.69l-2.009-1.422c-.613 1.033-1.723 1.676-2.91 1.657-1.225.058-2.373-.682-2.87-1.832l7.904-3.333-.287-.605zm-8.058 2.008c-.115-1.813 1.244-3.391 3.024-3.508h.077a2.275 2.275 0 012.182 1.267l-5.283 2.241zm-6.43 5.828h2.602V23.61h-2.602v17.678zm-4.249-10.33h-.096c-.804-.877-1.933-1.384-3.12-1.345-3.273.156-5.78 2.982-5.627 6.315.153 3.099 2.584 5.574 5.627 5.73a3.978 3.978 0 003.12-1.423h.096v.858c0 2.3-1.206 3.527-3.158 3.527a3.304 3.304 0 01-2.986-2.144l-2.258.956c.861 2.182 2.928 3.605 5.244 3.566 3.043 0 5.55-1.832 5.55-6.276V29.945h-2.412l.02 1.014zm-2.986 8.322c-1.971-.117-3.483-1.852-3.349-3.878.114-1.832 1.55-3.294 3.349-3.411 1.837.078 3.254 1.656 3.177 3.527v.117c.153 1.852-1.187 3.49-3.024 3.645h-.153zm33.895-15.67h-6.22v17.678h2.603v-6.705h3.617c2.986.214 5.57-2.066 5.781-5.087.21-3.02-2.029-5.672-4.996-5.886a5.272 5.272 0 00-.785 0zm0 8.478h-3.617v-6.022h3.675c1.646 0 2.966 1.364 2.966 3.02 0 1.677-1.339 3.022-2.966 3.022l-.058-.02zm16.02-2.534c-1.933-.116-3.751.936-4.632 2.71l2.297.974a2.457 2.457 0 012.373-1.286 2.511 2.511 0 012.775 2.241v.215a5.739 5.739 0 00-2.717-.683c-2.469 0-4.996 1.423-4.996 3.996.096 2.26 1.972 3.995 4.192 3.898h.134c1.32.078 2.584-.585 3.311-1.735h.076v1.423H165v-6.802c0-3.099-2.316-4.892-5.264-4.892l-.057-.059zm-.306 9.687c-.842 0-2.029-.448-2.029-1.5 0-1.423 1.474-1.891 2.775-1.891a4.501 4.501 0 012.354.584c-.172 1.599-1.493 2.807-3.062 2.827l-.038-.02zm14.756-9.277l-2.966 7.66h-.077l-3.081-7.66h-2.776l4.632 10.72-2.679 5.963h2.775L177 29.965h-2.871zm-23.35 11.324h2.584V23.61h-2.584v17.678zM65.302 9.134v7.12l.696.02L65.92 19h-.812l-.078-1.92h-5.064L59.889 19h-.812L59 16.274l.6-.02c.29-.537.599-1.132.792-1.746.27-.921.386-1.977.386-3.359V9.134h4.524zm-3.538 2.341c0 1.286-.116 2.361-.406 3.244a8.546 8.546 0 01-.657 1.517h3.557V9.978h-2.494v1.497zM74.06 13.03c0 2.746-1.683 4.205-3.732 4.205-2.126 0-3.615-1.632-3.615-4.05C66.713 10.65 68.3 9 70.444 9c2.204 0 3.615 1.67 3.615 4.03zm-6.225.135c0 1.709.928 3.225 2.551 3.225 1.644 0 2.571-1.497 2.571-3.302 0-1.593-.83-3.243-2.551-3.243-1.72 0-2.571 1.573-2.571 3.32zM81.018 16.831c-.386.192-1.14.384-2.126.384-2.262 0-3.963-1.42-3.963-4.03 0-2.496 1.7-4.185 4.195-4.185 1.005 0 1.624.211 1.913.345l-.25.845c-.388-.192-.948-.326-1.625-.326-1.875 0-3.131 1.19-3.131 3.282 0 1.958 1.14 3.206 3.093 3.206.638 0 1.276-.135 1.681-.327l.213.806zM84.248 9.998h-2.436v-.883h5.935v.883h-2.455V17.1h-1.044V9.998zM89.41 9.135l1.604 3.397c.194.48.387.94.58 1.401h.02c.135-.422.29-.883.502-1.44l1.257-3.358h1.102l-1.682 4.088c-.445 1.056-.947 2.284-1.508 3.033-.522.652-1.102.979-1.817.979-.27 0-.445-.02-.58-.077l.116-.845c.077.02.193.039.387.039.83-.02 1.314-.806 1.565-1.363.078-.173.058-.288-.038-.48L88.25 9.135h1.16zM101.123 9.135V17.1h-1.043V9.998h-3.731V17.1h-1.044V9.135h5.818zM103.966 9.135v3.34h3.885v-3.34h1.044V17.1h-1.044v-3.743h-3.885V17.1h-1.044V9.135h1.044zM117.537 13.03c0 2.746-1.681 4.205-3.731 4.205-2.126 0-3.615-1.632-3.615-4.05 0-2.534 1.586-4.185 3.731-4.185 2.204 0 3.615 1.67 3.615 4.03zm-6.224.135c0 1.709.928 3.225 2.551 3.225 1.644 0 2.571-1.497 2.571-3.302 0-1.593-.831-3.243-2.551-3.243-1.701 0-2.571 1.573-2.571 3.32zM123.935 9.23c.445-.096 1.16-.172 1.895-.172 1.043 0 1.701.172 2.203.575.426.308.658.787.658 1.402 0 .768-.503 1.44-1.354 1.746v.02c.754.191 1.663.825 1.663 1.996a2.11 2.11 0 01-.677 1.593c-.56.5-1.469.749-2.764.749-.715 0-1.257-.039-1.605-.096V9.23h-.019zm1.044 3.263h.947c1.102 0 1.74-.575 1.74-1.343 0-.94-.715-1.305-1.759-1.305-.483 0-.754.038-.909.076v2.572h-.019zm0 3.82c.193.039.503.039.87.039 1.063 0 2.068-.384 2.068-1.555 0-1.094-.947-1.536-2.068-1.536h-.851v3.052h-.019z" fill="#fff"/><defs><linearGradient id="googlePlay_svg__paint0_linear" x1="32.396" y1="11.22" x2="8.934" y2="34.505" gradientUnits="userSpaceOnUse"><stop stop-color="#00A0FF"/><stop offset=".01" stop-color="#00A1FF"/><stop offset=".26" stop-color="#00BEFF"/><stop offset=".51" stop-color="#00D2FF"/><stop offset=".76" stop-color="#00DFFF"/><stop offset="1" stop-color="#00E3FF"/></linearGradient><linearGradient id="googlePlay_svg__paint1_linear" x1="49.077" y1="26.992" x2="15.509" y2="26.992" gradientUnits="userSpaceOnUse"><stop stop-color="#FFE000"/><stop offset=".41" stop-color="#FFBD00"/><stop offset=".78" stop-color="orange"/><stop offset="1" stop-color="#FF9C00"/></linearGradient><linearGradient id="googlePlay_svg__paint2_linear" x1="36.582" y1="30.203" x2="4.758" y2="61.773" gradientUnits="userSpaceOnUse"><stop stop-color="#FF3A44"/><stop offset="1" stop-color="#C31162"/></linearGradient><linearGradient id="googlePlay_svg__paint3_linear" x1="12.265" y1="-.724" x2="26.471" y2="13.374" gradientUnits="userSpaceOnUse"><stop stop-color="#32A071"/><stop offset=".07" stop-color="#2DA771"/><stop offset=".48" stop-color="#15CF74"/><stop offset=".8" stop-color="#06E775"/><stop offset="1" stop-color="#00F076"/></linearGradient></defs></svg>